<?xml version="1.0" encoding="utf-8"?>
<!-- Generator: Adobe Illustrator 26.1.0, SVG Export Plug-In . SVG Version: 6.00 Build 0)  -->
<svg version="1.1" id="Layer_1" xmlns="http://www.w3.org/2000/svg" xmlns:xlink="http://www.w3.org/1999/xlink" x="0px" y="0px"
	 width="13.415px" height="17px" viewBox="0 0 13.415 17" style="enable-background:new 0 0 13.415 17;" xml:space="preserve">
<g>
	<g>
		<path d="M7.277,13.073L2.018,9.722l6.138-9.629l5.258,3.352L7.277,13.073z M2.85,9.537l4.243,2.704l5.49-8.613L8.341,0.925
			L2.85,9.537z"/>
	</g>
	<g>
		<rect x="-1.869" y="13.1" transform="matrix(0.1485 -0.9889 0.9889 0.1485 -11.7629 13.1422)" width="7.237" height="0.602"/>
	</g>
	<g>
		<rect x="0.569" y="14.31" transform="matrix(0.84 -0.5426 0.5426 0.84 -7.2617 4.5958)" width="7.185" height="0.602"/>
	</g>
	<g>
		<rect x="1.885" y="16.336" width="6.601" height="0.602"/>
	</g>
	<g>
		
			<rect x="0.527" y="14.741" transform="matrix(0.8455 -0.534 0.534 0.8455 -7.3755 4.7761)" style="fill:#FFFFFF;" width="8.078" height="0.785"/>
	</g>
	<g>
		
			<rect x="-3.05" y="13.01" transform="matrix(0.1489 -0.9889 0.9889 0.1489 -12.4109 12.3858)" style="fill:#FFFFFF;" width="8.078" height="0.786"/>
	</g>
</g>
</svg>
