<?xml version="1.0" encoding="utf-8"?>
<!-- Generator: Adobe Illustrator 26.1.0, SVG Export Plug-In . SVG Version: 6.00 Build 0)  -->
<svg version="1.1" id="Layer_1" xmlns="http://www.w3.org/2000/svg" xmlns:xlink="http://www.w3.org/1999/xlink" x="0px" y="0px"
	 width="17px" height="9.66px" viewBox="0 0 17 9.66" style="enable-background:new 0 0 17 9.66;" xml:space="preserve">
<path style="display:none;fill:none;stroke:#3D5D57;stroke-width:2;stroke-linecap:round;stroke-linejoin:round;" d="M8.5,3.072
	c1.818,0,3.222-1.405,3.222-3.222c0-1.735-1.487-3.222-3.222-3.222c-1.818,0-3.222,1.405-3.222,3.222
	C5.278,1.585,6.682,3.072,8.5,3.072z"/>
<path style="display:none;fill:none;stroke:#3D5D57;stroke-width:2;stroke-linecap:round;stroke-linejoin:round;" d="M15.936,10.756
	c0-4.214-3.305-7.601-7.436-7.601s-7.436,3.388-7.436,7.601c0,0.248,0,0.496,0,0.744h14.79
	C15.854,11.252,15.936,11.004,15.936,10.756z"/>
<g>
	<path d="M17,9.568H0V0.096h17V9.568z M0.486,9.082h16.029v-8.5H0.486V9.082z"/>
</g>
<g>
	<polygon points="8.12,5.688 0.112,0.543 0.374,0.135 8.128,5.116 16.389,0.131 16.64,0.547 	"/>
</g>
</svg>
