<?xml version="1.0" encoding="UTF-8"?>
<svg width="1200pt" height="1200pt" version="1.1" viewBox="0 0 1200 1200" xmlns="http://www.w3.org/2000/svg">
 <path d="m600.01 433.75c-139.41 0-261.86 64.363-331.1 161.77-2 2.8594-1.793 6.2031 0 8.7383 69.242 97.406 191.69 162.01 331.1 162.01s261.86-64.598 331.1-162.01c1.8555-2.2109 1.9141-6.2344 0-8.7383-69.242-97.406-191.69-161.77-331.1-161.77zm0 15.113c132.57 0 248.53 60.516 315.27 151.14-66.762 90.559-182.77 151.14-315.27 151.14-132.51 0-248.51-60.586-315.27-151.14 66.746-90.629 182.7-151.14 315.27-151.14zm0 45.344c-58.344 0-105.8 47.457-105.8 105.8s47.457 105.8 105.8 105.8 105.8-47.457 105.8-105.8-47.457-105.8-105.8-105.8zm0 15.113c50.172 0 90.688 40.512 90.688 90.688 0 50.172-40.512 90.688-90.688 90.688-50.176 0-90.688-40.512-90.688-90.688 0-50.172 40.512-90.688 90.688-90.688z"/>
</svg>
