<?xml version="1.0" encoding="UTF-8"?>
<svg width="1200pt" height="1200pt" version="1.1" viewBox="0 0 1200 1200" xmlns="http://www.w3.org/2000/svg">
 <g>
  <path d="m865.27 416.97c-9.5117-3.9727-20.527 0.45703-24.555 10.016-4.0117 9.5391 0.46875 20.543 10.016 24.555 95.277 40.082 175.38 101.95 232.45 179.39-106.06 143.74-285.61 229.14-483.18 229.14-55.152 0-109.41-6.7383-161.28-20.051-10.078-2.582-20.25 3.4805-22.824 13.512-2.5742 10.016 3.4805 20.234 13.504 22.816 54.914 14.082 112.31 21.223 170.6 21.223 214.68 0 409.68-95.652 521.62-255.89 4.5039-6.4258 4.5039-14.996 0.007812-21.441-61.523-88.312-150.18-158.59-256.37-203.27z"/>
  <path d="m478.82 716.95 103.69-103.69 344.25-344.26c7.3242-7.3242 7.3242-19.191 0-26.512-7.3242-7.3242-19.191-7.3242-26.512 0l-140.29 140.3c-51.711-12.336-105.41-18.84-159.95-18.84-214.66 0-409.66 95.801-521.63 256.27-4.4961 6.4453-4.4961 15.016 0.007812 21.461 56.707 81.188 136.42 146.76 231.32 191.37l-97.953 97.953c-7.3242 7.3242-7.3242 19.191 0 26.512 3.6602 3.6602 8.4609 5.4922 13.258 5.4922s9.5938-1.832 13.258-5.4922l240.55-240.56c0.003906-0.003906 0.007813-0.003906 0.007813-0.007812zm-361.99-86.023c106.08-143.94 285.62-229.48 483.17-229.48 43.652 0 86.711 4.3984 128.54 12.758l-59.641 59.641c-21.664-9.4414-45.141-14.648-68.898-14.648-94.602 0-171.56 76.961-171.56 171.55 0 23.754 5.2148 47.223 14.652 68.902l-105.15 105.16c-90.113-39.938-166.24-99.574-221.11-173.88zm355.16 39.824c-3.9922-12.906-6.0508-26.422-6.0508-40.008 0-73.918 60.141-134.05 134.06-134.05 13.586 0 27.09 2.0703 39.988 6.043l-131.84 131.85z"/>
  <path d="m600 764.81c-22.191 0-44.273-5.5859-63.848-16.133-9.1172-4.9609-20.48-1.5-25.406 7.5977-4.9062 9.1172-1.5117 20.488 7.6094 25.398 25.031 13.496 53.258 20.637 81.648 20.637 94.602 0 171.56-76.961 171.56-171.57 0-28.383-7.1328-56.617-20.617-81.648-4.918-9.1016-16.297-12.562-25.406-7.5977-9.1094 4.9062-12.516 16.277-7.6094 25.398 10.703 19.848 16.133 41.328 16.133 63.848 0 73.918-60.141 134.07-134.06 134.07z"/>
 </g>
</svg>
