<?xml version="1.0" encoding="utf-8"?>
<!-- Generator: Adobe Illustrator 26.1.0, SVG Export Plug-In . SVG Version: 6.00 Build 0)  -->
<svg version="1.1" id="Layer_1" xmlns="http://www.w3.org/2000/svg" xmlns:xlink="http://www.w3.org/1999/xlink" x="0px" y="0px"
	 width="25px" height="17.3495px" viewBox="0 0 25 17.3495" style="enable-background:new 0 0 25 17.3495;" xml:space="preserve">
<style type="text/css">
	.st0{display:none;}
	.st1{display:inline;}
	.st2{clip-path:url(#SVGID_00000042009773646249420860000000834627380327836056_);fill:#FFFFFF;}
	.st3{clip-path:url(#SVGID_00000170248513114600847780000010636628086393134733_);fill:#FFFFFF;}
	.st4{clip-path:url(#SVGID_00000098933703278978139750000016469145110551268016_);fill:#FFFFFF;}
</style>
<g class="st0">
	<g class="st1">
		<g>
			<g class="st0">
				<g class="st1">
					<g>
						<g>
							<g>
								<g>
									<defs>
										<rect id="SVGID_1_" x="2.469" y="2.9747" width="20.1" height="11.4"/>
									</defs>
									<clipPath id="SVGID_00000047049014408986743800000015254352477842648490_">
										<use xlink:href="#SVGID_1_"  style="overflow:visible;"/>
									</clipPath>
									<path style="clip-path:url(#SVGID_00000047049014408986743800000015254352477842648490_);fill:#FFFFFF;" d="M2.469,2.9747
										h20.1v11.4h-20.1C2.469,14.3747,2.469,2.9747,2.469,2.9747z M12.669,14.2747c0.7-0.1,1.4-0.1,2.1-0.3
										c3-0.6,5.4-2.3,7.3-4.6c0.5-0.6,0.5-1,0-1.6c-0.6-0.7-1.2-1.4-1.9-1.9c-2.6-2.2-5.7-3.2-9.2-2.5c-3.4,0.6-6.1,2.4-8.2,5.1
										c-0.2,0.3-0.2,0.4,0,0.6c0.8,0.8,1.5,1.7,2.4,2.3C7.369,13.1747,9.869,14.1747,12.669,14.2747"/>
								</g>
							</g>
						</g>
					</g>
				</g>
			</g>
			<g class="st0">
				<g class="st1">
					<g>
						<g>
							<g>
								<g>
									<defs>
										<rect id="SVGID_00000022540816963813772420000006184790974628414081_" x="2.469" y="2.9747" width="20.1" height="11.4"/>
									</defs>
									<clipPath id="SVGID_00000016063819650227828910000006784098002393365127_">
										<use xlink:href="#SVGID_00000022540816963813772420000006184790974628414081_"  style="overflow:visible;"/>
									</clipPath>
									<path style="clip-path:url(#SVGID_00000016063819650227828910000006784098002393365127_);fill:#FFFFFF;" d="
										M12.769,13.4747c-3.5,0-6.3-1.4-8.5-3.9l0,0c-0.7-0.8-0.7-0.8,0-1.6c1.9-2.2,4.4-3.7,7.3-4c3.5-0.4,6.4,0.8,8.9,3.3
										c0.4,0.4,0.7,0.8,1,1.1c0.1,0.1,0.1,0.3,0,0.4c-1.8,2.5-4.2,4.1-7.3,4.6C13.669,13.4747,13.169,13.4747,12.769,13.4747
										 M8.869,8.6747c0,2.1,1.8,3.9,3.9,3.9s3.9-1.7,3.9-3.8s-1.7-3.8-3.9-3.8C10.669,4.8747,8.869,6.5747,8.869,8.6747"/>
								</g>
							</g>
						</g>
					</g>
				</g>
			</g>
			<g class="st0">
				<g class="st1">
					<g>
						<g>
							<g>
								<g>
									<defs>
										<rect id="SVGID_00000086676538263620333490000010579244483967864226_" x="2.469" y="2.9747" width="20.1" height="11.4"/>
									</defs>
									<clipPath id="SVGID_00000112621781532851776890000007790630739983160729_">
										<use xlink:href="#SVGID_00000086676538263620333490000010579244483967864226_"  style="overflow:visible;"/>
									</clipPath>
									<path style="clip-path:url(#SVGID_00000112621781532851776890000007790630739983160729_);fill:#FFFFFF;" d="
										M12.769,11.6747c-1.7,0-3.1-1.3-3.1-3.1c0-1.7,1.3-3.1,3-3.1s3.1,1.4,3.1,3.1
										C15.769,10.3747,14.469,11.6747,12.769,11.6747"/>
								</g>
							</g>
						</g>
					</g>
				</g>
			</g>
		</g>
	</g>
</g>
<g id="icon">
	<path d="M24.8758,8.4263c0-0.1242-0.9935-1.7386-2.9805-3.4773c-1.1177-0.9935-2.4838-1.8628-3.8499-2.3596
		c-1.7386-0.7451-3.6015-1.1177-5.4643-1.1177c-1.987,0-3.8499,0.3726-5.5885,1.1177C5.6265,3.0862,4.3846,3.9555,3.1427,4.949
		c-1.987,1.7386-2.9805,3.3531-2.9805,3.4773L0.038,8.6747l0.1242,0.2484c0,0.1242,0.9935,1.7386,2.9805,3.4773
		c1.1177,0.9935,2.4838,1.8628,3.8499,2.3596c1.7386,0.7451,3.6015,1.1177,5.4643,1.1177c1.987,0,3.8499-0.3726,5.4643-1.1177
		c1.3661-0.6209,2.608-1.3661,3.8499-2.3596c2.1112-1.7386,3.1047-3.3531,3.1047-3.4773L25,8.6747L24.8758,8.4263z M21.1501,11.6553
		c-2.4838,2.1112-5.4643,3.2289-8.6932,3.2289s-6.2095-1.1177-8.6932-3.2289c-1.4903-1.2419-2.3596-2.4838-2.608-2.9805
		c0.3726-0.4968,1.2419-1.7386,2.608-2.9805c2.4837-2.1113,5.4643-3.229,8.6932-3.229s6.2095,1.1177,8.6932,3.2289
		c1.4903,1.2419,2.3596,2.4838,2.608,2.9805C23.5097,9.1715,22.6404,10.4134,21.1501,11.6553z"/>
	<path d="M12.5811,4.0797c-2.608,0-4.7192,1.987-4.7192,4.595s2.1112,4.595,4.7192,4.595s4.595-2.1112,4.595-4.595
		S15.0649,4.0797,12.5811,4.0797z M12.5811,12.2762c-1.987,0-3.6015-1.6145-3.6015-3.6015s1.4903-3.6015,3.6015-3.6015
		s3.6015,1.6145,3.6015,3.6015S14.5681,12.2762,12.5811,12.2762z"/>
</g>
</svg>
