<svg xmlns="http://www.w3.org/2000/svg" width="83" height="83" viewBox="0 0 991 693" fill="none">
<path fill-rule="evenodd" clip-rule="evenodd" d="M768.877 43.621L725.256 87.241L709.878 81.228C665.747 63.973 622.163 53.138 573.5 47.325C551.911 44.746 482.278 44.733 460.5 47.304C411.246 53.119 371.49 61.665 328.655 75.646C247.55 102.118 176.294 142.715 108 201.362C92.858 214.365 47.311 260.197 33.826 276C3.97197 310.986 -0.689027 317.829 0.302973 325.219C1.05197 330.804 3.13197 333.569 27.6 361.5C75.868 416.6 100.001 439.853 139.5 469.321C173.96 495.029 206.159 514.938 243.769 533.792L267.038 545.456L207.773 604.727L148.508 663.999L162.755 678.246L177.002 692.493L242.347 627.153L307.692 561.814L325.096 567.485C379.599 585.242 439.674 595.609 499.5 597.579C529.896 598.579 577.086 593.715 612.713 585.907C713.014 563.927 800.273 520.649 877.642 454.508C903.241 432.624 935.466 399.575 958.124 371.967C980.01 345.302 986.203 335.455 989.468 322.131C991.122 315.381 991.129 314.544 989.576 308.362C986.355 295.54 982.915 290.506 959.514 264.36C936.851 239.041 900.019 201.924 883.028 187.283C850.745 159.464 812.533 132.806 775.149 112.023L763.797 105.712L802.639 66.86L841.482 28.009L827.504 14.004C819.817 6.302 813.295 0 813.012 0C812.729 0 792.868 19.629 768.877 43.621ZM542.5 83.014C587.728 85.86 631.703 94.407 671.5 108.085C691.826 115.07 695 116.271 695 116.975C695 117.271 681.316 131.191 664.59 147.91L634.18 178.307L626.34 171.983C573.236 129.143 503.944 116.632 441 138.519C385.698 157.749 339.422 203.528 320.727 257.5C313.029 279.725 310.493 297.252 311.275 322.824C311.879 342.539 313.584 353.797 318.647 371.5C326.231 398.014 342.079 427.027 359.012 445.398L362.898 449.613L328.094 484.406L293.29 519.2L285.895 515.967C253.424 501.772 212.945 478.369 179.541 454.479C138.868 425.39 112.369 399.446 64.182 341.536C56.77 332.629 54.938 329.769 54.417 326.293C53.295 318.815 54.504 316.161 64.989 303.078C122.375 231.471 185.542 179.033 258.985 142.032C328.92 106.799 402.346 87.721 487.5 82.658C499.982 81.916 527.923 82.097 542.5 83.014ZM746.895 140.657C798.253 168.055 847.871 205.756 893.627 252.149C908.822 267.555 949 312.367 949 313.908C949 315.01 900.894 374.17 889.972 386.5C876.686 401.498 849.149 428.288 834.046 440.908C755.644 506.423 663.519 544.96 553.851 558.115C520.385 562.13 466.515 561.83 432 557.436C402.465 553.677 356.682 543.293 337.519 536.007L334.611 534.902L363.973 505.527L393.335 476.153L399.114 480.077C420.604 494.671 451.077 505.745 480.385 509.613C494.78 511.513 522.879 511.033 535.5 508.672C577.853 500.75 611.826 482.546 641.528 451.86C679.896 412.22 699.041 360.657 695.872 305.5C694.136 275.29 683.22 242.383 666.525 217.031L660.948 208.562L697.719 171.781C717.943 151.551 734.895 135 735.39 135C735.885 135 741.062 137.546 746.895 140.657ZM523.678 165.067C552.35 168.98 582.755 182.595 602.5 200.364L607.5 204.863L499 313.768C439.325 373.665 390.275 422.743 390 422.828C388.436 423.317 374.082 401.685 368.548 390.5C356.882 366.92 351.887 345.006 351.793 317C351.727 297.265 353.479 285.565 358.997 268.888C377.139 214.059 423.813 174.406 480.599 165.577C491.499 163.883 513.121 163.627 523.678 165.067ZM639.076 247.151C645.37 259.693 651.275 277.289 653.623 290.5C656.209 305.046 655.973 331.523 653.115 347.431C642.474 406.675 602.196 452.206 547.5 466.822C515.827 475.286 480.74 474.192 451.057 463.816C442.471 460.815 426.219 453.188 422.526 450.428C420.655 449.029 426.088 443.415 526.524 342.976C584.809 284.689 632.831 237 633.239 237C633.648 237 636.274 241.568 639.076 247.151Z" fill="black"/>
</svg>