<?xml version="1.0" encoding="utf-8"?>
<!-- Generator: Adobe Illustrator 26.1.0, SVG Export Plug-In . SVG Version: 6.00 Build 0)  -->
<svg version="1.1" id="Layer_1" xmlns="http://www.w3.org/2000/svg" xmlns:xlink="http://www.w3.org/1999/xlink" x="0px" y="0px"
	 width="17px" height="17px" viewBox="0 0 17 17" style="enable-background:new 0 0 17 17;" xml:space="preserve">
<g>
	<g>
		<path d="M8.5,16.904c-4.634,0-8.404-3.77-8.404-8.404c0-4.634,3.77-8.404,8.404-8.404c4.634,0,8.404,3.77,8.404,8.404
			C16.904,13.134,13.134,16.904,8.5,16.904z M8.5,0.689c-4.307,0-7.811,3.504-7.811,7.811c0,4.307,3.504,7.811,7.811,7.811
			c4.307,0,7.811-3.504,7.811-7.811C16.311,4.193,12.807,0.689,8.5,0.689z"/>
	</g>
	<g>
		<rect x="8.104" y="5.943" width="0.791" height="6.71"/>
	</g>
	<g>
		<rect x="8.15" y="4.146" transform="matrix(0.0225 -0.9997 0.9997 0.0225 3.7688 12.9368)" width="0.7" height="0.791"/>
	</g>
</g>
</svg>
