<?xml version="1.0" encoding="UTF-8"?>
<svg width="1200pt" height="1200pt" version="1.1" viewBox="0 0 1200 1200" xmlns="http://www.w3.org/2000/svg">
 <g>
  <path d="m200 857.14h157.14c4.0273 0 7.8711-1.6992 10.586-4.6875l414.29-457.14c2.6133-2.8867 3.9297-6.7148 3.6562-10.602-0.26953-3.8711-2.1133-7.4727-5.1016-9.9727l-171.43-142.86c-5.8984-4.8984-14.602-4.3008-19.742 1.4141l-400 442.86c-2.3711 2.6172-3.6836 6.0195-3.6836 9.5625v157.14c0 7.8984 6.3984 14.285 14.285 14.285zm14.285-136.95 108.37 108.37h-108.37zm387.11-457.57 149.44 124.53-394.21 434.99-136.93-136.93z"/>
  <path d="m200 914.29h800v28.57h-800z"/>
 </g>
</svg>
