<?xml version="1.0" encoding="utf-8"?>
<!-- Generator: Adobe Illustrator 26.1.0, SVG Export Plug-In . SVG Version: 6.00 Build 0)  -->
<svg version="1.1" id="Layer_1" xmlns="http://www.w3.org/2000/svg" xmlns:xlink="http://www.w3.org/1999/xlink" x="0px" y="0px"
	 viewBox="0 0 24 21" style="enable-background:new 0 0 24 21;" xml:space="preserve">
<style type="text/css">
	.st0{fill:#3D5D57;}
</style>
<path class="st0" d="M12.03,10.84c-2.29,0-4.16-1.84-4.16-4.1c0-2.26,1.87-4.1,4.16-4.1s4.16,1.84,4.16,4.1
	C16.19,9,14.33,10.84,12.03,10.84z M12.03,3.39c-1.88,0-3.41,1.5-3.41,3.35c0,1.84,1.53,3.35,3.41,3.35s3.41-1.5,3.41-3.35
	C15.44,4.9,13.91,3.39,12.03,3.39z"/>
<path class="st0" d="M20.95,20.65H3.12l-0.03-0.34C3.05,20,3.03,19.68,3.03,19.36c0-5.04,4.04-9.15,9-9.15c4.96,0,9,4.1,9,9.15
	c0,0.31-0.02,0.63-0.05,0.95L20.95,20.65z M3.8,19.9h16.47c0.01-0.18,0.02-0.36,0.02-0.53c0-4.63-3.7-8.4-8.25-8.4
	s-8.25,3.77-8.25,8.4C3.78,19.54,3.79,19.72,3.8,19.9z"/>
</svg>

