<?xml version="1.0" encoding="utf-8"?>
<!-- Generator: Adobe Illustrator 26.1.0, SVG Export Plug-In . SVG Version: 6.00 Build 0)  -->
<svg version="1.1" id="Layer_1" xmlns="http://www.w3.org/2000/svg" xmlns:xlink="http://www.w3.org/1999/xlink" x="0px" y="0px"
	 width="8.495px" height="6.712px" viewBox="0 0 8.495 6.712" style="enable-background:new 0 0 8.495 6.712;" xml:space="preserve"
	>
<g>
	<g>
		<defs>
			<rect id="SVGID_1_" x="-0.022" y="0.773" width="8.483" height="4.786"/>
		</defs>
		<clipPath id="SVGID_00000172432285338061552520000009132178542489519281_">
			<use xlink:href="#SVGID_1_"  style="overflow:visible;"/>
		</clipPath>
		<g style="clip-path:url(#SVGID_00000172432285338061552520000009132178542489519281_);">
			<g>
				<defs>
					<rect id="SVGID_00000022529949143426355760000014769489038105597575_" x="-0.022" y="0.773" width="8.483" height="4.786"/>
				</defs>
				<clipPath id="SVGID_00000023967443401818744420000015645966606385166472_">
					<use xlink:href="#SVGID_00000022529949143426355760000014769489038105597575_"  style="overflow:visible;"/>
				</clipPath>
				<g style="clip-path:url(#SVGID_00000023967443401818744420000015645966606385166472_);">
					<g>
						<defs>
							<rect id="SVGID_00000176738730389908651620000009221703665738950542_" x="-0.022" y="0.773" width="8.483" height="4.786"/>
						</defs>
						<clipPath id="SVGID_00000070111151212734464050000015589706954189590450_">
							<use xlink:href="#SVGID_00000176738730389908651620000009221703665738950542_"  style="overflow:visible;"/>
						</clipPath>
						<g style="clip-path:url(#SVGID_00000070111151212734464050000015589706954189590450_);">
							<g>
								<defs>
									
										<rect id="SVGID_00000082352123908547312040000001575279352039713453_" x="-0.022" y="0.773" width="8.483" height="4.786"/>
								</defs>
								<clipPath id="SVGID_00000016067960321298310650000005527371492721347486_">
									<use xlink:href="#SVGID_00000082352123908547312040000001575279352039713453_"  style="overflow:visible;"/>
								</clipPath>
								<g style="clip-path:url(#SVGID_00000016067960321298310650000005527371492721347486_);">
									<path style="fill:#FFFFFF;" d="M8.461,5.559h-8.483V0.773h8.483 M4.365,5.473c0.137-0.01,0.347-0.022,0.554-0.042
										c0.088-0.008,0.175-0.03,0.261-0.047C6.456,5.122,7.458,4.427,8.274,3.44c0.207-0.251,0.212-0.418-0.008-0.664
										C8.011,2.493,7.754,2.207,7.462,1.965C6.336,1.03,5.041,0.625,3.582,0.881c-1.44,0.253-2.575,1.022-3.47,2.16
										C0.03,3.147,0.034,3.222,0.122,3.309c0.33,0.326,0.637,0.681,0.994,0.973C2.036,5.034,3.089,5.461,4.365,5.473"/>
								</g>
							</g>
							<g>
								<defs>
									
										<rect id="SVGID_00000018922995795776315920000000527859448704532902_" x="-0.022" y="0.773" width="8.483" height="4.786"/>
								</defs>
								<clipPath id="SVGID_00000041292674756528127650000011393942110303888057_">
									<use xlink:href="#SVGID_00000018922995795776315920000000527859448704532902_"  style="overflow:visible;"/>
								</clipPath>
								<g style="clip-path:url(#SVGID_00000041292674756528127650000011393942110303888057_);">
									<path d="M4.365,5.473c-1.277-0.013-2.33-0.439-3.25-1.191C0.757,3.99,0.452,3.635,0.122,3.309
										c-0.088-0.087-0.093-0.162-0.01-0.268c0.895-1.138,2.029-1.906,3.469-2.16c1.459-0.257,2.753,0.149,3.88,1.084
										c0.292,0.242,0.549,0.527,0.804,0.811C8.485,3.022,8.48,3.188,8.273,3.44C7.458,4.428,6.456,5.122,5.18,5.384
										C5.094,5.402,5.006,5.423,4.918,5.431C4.712,5.451,4.503,5.463,4.365,5.473 M4.31,5.164C4.49,5.15,4.716,5.149,4.937,5.113
										C6.23,4.897,7.234,4.221,8.011,3.186C8.061,3.12,8.065,3.072,8.01,3.011C7.866,2.853,7.733,2.684,7.582,2.533
										c-1.041-1.04-2.288-1.552-3.771-1.376c-1.247,0.148-2.269,0.74-3.087,1.684c-0.28,0.324-0.276,0.328,0.009,0.656
										C0.736,3.501,0.74,3.505,0.743,3.508C1.69,4.538,2.842,5.133,4.31,5.164"/>
								</g>
							</g>
							<g>
								<defs>
									
										<rect id="SVGID_00000049193387764959295690000016305909447938936747_" x="-0.022" y="0.773" width="8.483" height="4.786"/>
								</defs>
								<clipPath id="SVGID_00000084528678959780543470000017182500435877665673_">
									<use xlink:href="#SVGID_00000049193387764959295690000016305909447938936747_"  style="overflow:visible;"/>
								</clipPath>
								<g style="clip-path:url(#SVGID_00000084528678959780543470000017182500435877665673_);">
									<path style="fill:#FFFFFF;" d="M4.31,5.164C2.843,5.133,1.69,4.538,0.743,3.508C0.74,3.504,0.736,3.5,0.734,3.497
										c-0.285-0.327-0.29-0.332-0.01-0.656c0.818-0.944,1.84-1.536,3.087-1.684c1.482-0.176,2.729,0.336,3.77,1.376
										c0.152,0.151,0.284,0.32,0.428,0.478C8.064,3.072,8.061,3.12,8.011,3.186C7.234,4.221,6.23,4.897,4.937,5.113
										C4.715,5.15,4.49,5.151,4.31,5.164 M2.681,3.115C2.676,3.997,3.421,4.738,4.31,4.737c0.885-0.001,1.629-0.733,1.634-1.605
										c0.005-0.883-0.735-1.618-1.631-1.619C3.429,1.511,2.684,2.243,2.681,3.115"/>
								</g>
							</g>
							<g>
								<defs>
									
										<rect id="SVGID_00000044163752416360719810000000768660756496659591_" x="-0.022" y="0.773" width="8.483" height="4.786"/>
								</defs>
								<clipPath id="SVGID_00000006708759386564493390000002422384361317186965_">
									<use xlink:href="#SVGID_00000044163752416360719810000000768660756496659591_"  style="overflow:visible;"/>
								</clipPath>
								<g style="clip-path:url(#SVGID_00000006708759386564493390000002422384361317186965_);">
									<path d="M2.681,3.115C2.684,2.243,3.43,1.511,4.313,1.512c0.895,0.002,1.635,0.736,1.631,1.619
										C5.94,4.004,5.195,4.735,4.311,4.736C3.421,4.737,2.675,3.997,2.681,3.115 M4.308,4.408
										C5.031,4.41,5.597,3.857,5.601,3.144c0.005-0.738-0.571-1.329-1.293-1.326c-0.706,0.003-1.28,0.578-1.283,1.284
										C3.022,3.843,3.576,4.406,4.308,4.408"/>
								</g>
							</g>
							<g>
								<defs>
									
										<rect id="SVGID_00000018234307806407874100000014529557373318358157_" x="-0.022" y="0.773" width="8.483" height="4.786"/>
								</defs>
								<clipPath id="SVGID_00000060737567971470322500000015174582635654028459_">
									<use xlink:href="#SVGID_00000018234307806407874100000014529557373318358157_"  style="overflow:visible;"/>
								</clipPath>
								<g style="clip-path:url(#SVGID_00000060737567971470322500000015174582635654028459_);">
									<path style="fill:#FFFFFF;" d="M4.308,4.408C3.576,4.406,3.022,3.843,3.025,3.103c0.003-0.706,0.576-1.281,1.283-1.284
										c0.722-0.003,1.298,0.587,1.293,1.326C5.597,3.856,5.031,4.41,4.308,4.408"/>
								</g>
							</g>
						</g>
					</g>
				</g>
			</g>
		</g>
	</g>
</g>
<g style="enable-background:new    ;">
	<g>
		<g>
			<defs>
				<rect id="SVGID_00000091722735090507107480000009532101059545211013_" x="0.96" y="0.013" width="6.676" height="6.676"/>
			</defs>
			<clipPath id="SVGID_00000103957882936934076620000008125790853256468361_">
				<use xlink:href="#SVGID_00000091722735090507107480000009532101059545211013_"  style="overflow:visible;"/>
			</clipPath>
			<g style="clip-path:url(#SVGID_00000103957882936934076620000008125790853256468361_);">
				<line style="fill:none;" x1="7.552" y1="0.098" x2="1.044" y2="6.605"/>
			</g>
		</g>
		<g>
			<defs>
				<rect id="SVGID_00000078747701276061835820000015257856416694858639_" x="0.96" y="0.013" width="6.676" height="6.676"/>
			</defs>
			<clipPath id="SVGID_00000155861065643423906380000000351066576666213249_">
				<use xlink:href="#SVGID_00000078747701276061835820000015257856416694858639_"  style="overflow:visible;"/>
			</clipPath>
			<g style="clip-path:url(#SVGID_00000155861065643423906380000000351066576666213249_);">
				<rect x="-0.304" y="3.233" transform="matrix(0.7071 -0.7071 0.7071 0.7071 -1.111 4.0209)" width="9.204" height="0.237"/>
			</g>
		</g>
	</g>
</g>
</svg>
