<?xml version="1.0" encoding="utf-8"?>
<!-- Generator: Adobe Illustrator 26.1.0, SVG Export Plug-In . SVG Version: 6.00 Build 0)  -->
<svg version="1.1" id="Layer_1" xmlns="http://www.w3.org/2000/svg" xmlns:xlink="http://www.w3.org/1999/xlink" x="0px" y="0px"
	 width="25px" height="14.7766px" viewBox="0 0 25 14.7766" style="enable-background:new 0 0 25 14.7766;" xml:space="preserve">
<style type="text/css">
	.st0{fill:none;}
	.st1{display:none;}
	.st2{display:inline;}
	.st3{clip-path:url(#SVGID_00000000917076163265533130000007764407651294686898_);fill:#FFFFFF;}
	.st4{clip-path:url(#SVGID_00000156588388878310916510000009361830146707610270_);fill:#FFFFFF;}
	.st5{clip-path:url(#SVGID_00000017490430735186299370000011074534208265733554_);fill:#FFFFFF;}
</style>
<rect x="2.45" y="1.6468" class="st0" width="20.1" height="11.4"/>
<rect x="2.45" y="1.6468" class="st0" width="20.1" height="11.4"/>
<g class="st1">
	<g class="st2">
		<g>
			<g class="st1">
				<g class="st2">
					<g>
						<g>
							<g>
								<defs>
									<rect id="SVGID_1_" x="2.45" y="1.6468" width="20.1" height="11.4"/>
								</defs>
								<clipPath id="SVGID_00000116954088591233508160000014906241066679154311_">
									<use xlink:href="#SVGID_1_"  style="overflow:visible;"/>
								</clipPath>
								<path style="clip-path:url(#SVGID_00000116954088591233508160000014906241066679154311_);fill:#FFFFFF;" d="M2.45,1.6468
									h20.1v11.4H2.45C2.45,13.0468,2.45,1.6468,2.45,1.6468z M12.65,12.9468c0.7-0.1,1.4-0.1,2.1-0.3c3-0.6,5.4-2.3,7.3-4.6
									c0.5-0.6,0.5-1,0-1.6c-0.6-0.7-1.2-1.4-1.9-1.9c-2.6-2.2-5.7-3.2-9.2-2.5c-3.4,0.6-6.1,2.4-8.2,5.1c-0.2,0.3-0.2,0.4,0,0.6
									c0.8,0.8,1.5,1.7,2.4,2.3C7.35,11.8468,9.85,12.8468,12.65,12.9468"/>
							</g>
						</g>
					</g>
				</g>
			</g>
			<g class="st1">
				<g class="st2">
					<g>
						<g>
							<g>
								<defs>
									<rect id="SVGID_00000088818566856705618950000002487373846141196937_" x="2.45" y="1.6468" width="20.1" height="11.4"/>
								</defs>
								<clipPath id="SVGID_00000048493322672839228300000001403769661833150867_">
									<use xlink:href="#SVGID_00000088818566856705618950000002487373846141196937_"  style="overflow:visible;"/>
								</clipPath>
								<path style="clip-path:url(#SVGID_00000048493322672839228300000001403769661833150867_);fill:#FFFFFF;" d="M12.75,12.1468
									c-3.5,0-6.3-1.4-8.5-3.9l0,0c-0.7-0.8-0.7-0.8,0-1.6c1.9-2.2,4.4-3.7,7.3-4c3.5-0.4,6.4,0.8,8.9,3.3c0.4,0.4,0.7,0.8,1,1.1
									c0.1,0.1,0.1,0.3,0,0.4c-1.8,2.5-4.2,4.1-7.3,4.6C13.65,12.1468,13.15,12.1468,12.75,12.1468 M8.85,7.3468
									c0,2.1,1.8,3.9,3.9,3.9s3.9-1.7,3.9-3.8s-1.7-3.8-3.9-3.8C10.65,3.5468,8.85,5.2468,8.85,7.3468"/>
							</g>
						</g>
					</g>
				</g>
			</g>
			<g class="st1">
				<g class="st2">
					<g>
						<g>
							<g>
								<defs>
									<rect id="SVGID_00000055689813837356467040000016453694393862110142_" x="2.45" y="1.6468" width="20.1" height="11.4"/>
								</defs>
								<clipPath id="SVGID_00000128467421251213739800000010778032628741685695_">
									<use xlink:href="#SVGID_00000055689813837356467040000016453694393862110142_"  style="overflow:visible;"/>
								</clipPath>
								<path style="clip-path:url(#SVGID_00000128467421251213739800000010778032628741685695_);fill:#FFFFFF;" d="M12.75,10.3468
									c-1.7,0-3.1-1.3-3.1-3.1c0-1.7,1.3-3.1,3-3.1s3.1,1.4,3.1,3.1C15.75,9.0468,14.45,10.3468,12.75,10.3468"/>
							</g>
						</g>
					</g>
				</g>
			</g>
		</g>
	</g>
</g>
<g id="icon">
	<path d="M24.8756,7.0981c0-0.1244-0.995-1.7413-2.9851-3.4826c-1.1194-0.995-2.4876-1.8657-3.8557-2.3632
		c-1.7413-0.7463-3.607-1.1194-5.4726-1.1194c-1.9901,0-3.8557,0.3731-5.597,1.1194C5.597,1.7498,4.3532,2.6204,3.1095,3.6155
		c-1.99,1.7413-2.9851,3.3582-2.9851,3.4826L0,7.3468l0.1244,0.2488c0,0.1244,0.995,1.7413,2.9851,3.4826
		c1.1194,0.995,2.4876,1.8657,3.8557,2.3632c1.7413,0.7463,3.607,1.1194,5.4726,1.1194c1.9901,0,3.8557-0.3731,5.4726-1.1194
		c1.3682-0.6219,2.6119-1.3682,3.8557-2.3632c2.1144-1.7413,3.1095-3.3582,3.1095-3.4826L25,7.3468L24.8756,7.0981z
		 M21.1443,10.3319c-2.4876,2.1144-5.4726,3.2338-8.7065,3.2338s-6.2189-1.1194-8.7065-3.2338
		C2.2388,9.0881,1.3682,7.8443,1.1194,7.3468c0.3731-0.4975,1.2438-1.7413,2.6119-2.9851c2.4876-2.1144,5.4726-3.2338,8.7065-3.2338
		s6.2189,1.1194,8.7065,3.2338c1.4925,1.2438,2.3632,2.4876,2.6119,2.9851C23.5075,7.8443,22.6368,9.0881,21.1443,10.3319z"/>
	<path d="M12.5622,2.7448c-2.6119,0-4.7264,1.99-4.7264,4.602s2.1144,4.602,4.7264,4.602s4.602-2.1144,4.602-4.602
		S15.0498,2.7448,12.5622,2.7448z M12.5622,10.9538c-1.9901,0-3.607-1.6169-3.607-3.607s1.4925-3.607,3.607-3.607
		s3.607,1.6169,3.607,3.607S14.5522,10.9538,12.5622,10.9538z"/>
</g>
</svg>
