<?xml version="1.0" encoding="utf-8"?>
<!-- Generator: Adobe Illustrator 26.1.0, SVG Export Plug-In . SVG Version: 6.00 Build 0)  -->
<svg version="1.1" id="Layer_1" xmlns="http://www.w3.org/2000/svg" xmlns:xlink="http://www.w3.org/1999/xlink" x="0px" y="0px"
	 width="20.077px" height="11.823px" viewBox="0 0 20.077 11.823" style="enable-background:new 0 0 20.077 11.823;"
	 xml:space="preserve">
<g>
	<g>
		<defs>
			<rect id="SVGID_1_" x="-0.021" y="0.235" width="20.12" height="11.369"/>
		</defs>
		<clipPath id="SVGID_00000009576144762222129730000006448774025461717120_">
			<use xlink:href="#SVGID_1_"  style="overflow:visible;"/>
		</clipPath>
		<g style="clip-path:url(#SVGID_00000009576144762222129730000006448774025461717120_);">
			<g>
				<defs>
					<rect id="SVGID_00000176735198112625343360000012446686559350620064_" x="-0.021" y="0.235" width="20.12" height="11.369"/>
				</defs>
				<clipPath id="SVGID_00000085222566514544680160000008071444418628701871_">
					<use xlink:href="#SVGID_00000176735198112625343360000012446686559350620064_"  style="overflow:visible;"/>
				</clipPath>
				<g style="clip-path:url(#SVGID_00000085222566514544680160000008071444418628701871_);">
					<g>
						<defs>
							<rect id="SVGID_00000152961059158118134450000006900499215991976579_" x="-0.021" y="0.235" width="20.12" height="11.369"/>
						</defs>
						<clipPath id="SVGID_00000043446956202427624250000011180791622405840787_">
							<use xlink:href="#SVGID_00000152961059158118134450000006900499215991976579_"  style="overflow:visible;"/>
						</clipPath>
						<g style="clip-path:url(#SVGID_00000043446956202427624250000011180791622405840787_);">
							<g>
								<defs>
									
										<rect id="SVGID_00000053508025435350752740000005866642432069554843_" x="-0.021" y="0.235" width="20.12" height="11.369"/>
								</defs>
								<clipPath id="SVGID_00000062167268964292071780000014653937888837041827_">
									<use xlink:href="#SVGID_00000053508025435350752740000005866642432069554843_"  style="overflow:visible;"/>
								</clipPath>
								<path style="clip-path:url(#SVGID_00000062167268964292071780000014653937888837041827_);fill:#FFFFFF;" d="M-0.021,0.235
									h20.12v11.369h-20.12V0.235z M10.227,11.525c0.699-0.086,1.407-0.128,2.095-0.265c3.03-0.606,5.406-2.268,7.339-4.617
									c0.491-0.598,0.503-0.994-0.02-1.579c-0.601-0.673-1.213-1.353-1.904-1.928C15.06,0.913,11.99-0.052,8.53,0.559
									C5.112,1.162,2.421,2.99,0.298,5.697c-0.196,0.251-0.185,0.43,0.024,0.636C1.105,7.107,1.83,7.951,2.677,8.647
									C4.859,10.435,7.359,11.45,10.227,11.525"/>
							</g>
							<g>
								<defs>
									
										<rect id="SVGID_00000145756213245890284630000008962577119410049435_" x="-0.021" y="0.235" width="20.12" height="11.369"/>
								</defs>
								<clipPath id="SVGID_00000101807158138732408080000008770403250906213299_">
									<use xlink:href="#SVGID_00000145756213245890284630000008962577119410049435_"  style="overflow:visible;"/>
								</clipPath>
								<path style="clip-path:url(#SVGID_00000101807158138732408080000008770403250906213299_);" d="M10.227,11.525
									c-2.868-0.076-5.367-1.089-7.55-2.878C1.83,7.951,1.105,7.107,0.322,6.332c-0.208-0.206-0.22-0.385-0.022-0.637
									c2.123-2.707,4.813-4.534,8.231-5.137c3.459-0.611,6.53,0.353,9.207,2.578c0.691,0.575,1.303,1.255,1.904,1.928
									c0.522,0.586,0.511,0.982,0.02,1.58c-1.933,2.349-4.308,4.011-7.339,4.617C11.634,11.398,10.926,11.44,10.227,11.525
									 M10.258,10.747c0.424-0.033,0.963-0.036,1.485-0.123c3.067-0.511,5.451-2.12,7.294-4.583
									c0.118-0.157,0.129-0.271-0.002-0.417c-0.342-0.376-0.657-0.779-1.017-1.137c-2.471-2.475-5.429-3.691-8.945-3.272
									C6.115,1.567,3.689,2.974,1.75,5.22c-0.665,0.772-0.654,0.781,0.02,1.56c0.008,0.009,0.017,0.019,0.025,0.028
									C4.043,9.255,6.776,10.672,10.258,10.747"/>
							</g>
							<g>
								<defs>
									
										<rect id="SVGID_00000156564571376946041790000009797044989850185385_" x="-0.021" y="0.235" width="20.12" height="11.369"/>
								</defs>
								<clipPath id="SVGID_00000173857040811517938480000015354573599673123751_">
									<use xlink:href="#SVGID_00000156564571376946041790000009797044989850185385_"  style="overflow:visible;"/>
								</clipPath>
								<path style="clip-path:url(#SVGID_00000173857040811517938480000015354573599673123751_);fill:#FFFFFF;" d="M10.258,10.747
									c-3.482-0.075-6.215-1.491-8.462-3.939c-0.008-0.011-0.017-0.02-0.025-0.03c-0.675-0.778-0.685-0.787-0.02-1.56
									c1.941-2.245,4.365-3.652,7.321-4.004c3.516-0.419,6.474,0.798,8.945,3.272c0.36,0.359,0.675,0.761,1.017,1.137
									c0.133,0.146,0.121,0.259,0.002,0.417c-1.843,2.463-4.226,4.07-7.294,4.583C11.221,10.71,10.681,10.712,10.258,10.747
									 M6.39,5.872C6.379,7.968,8.145,9.73,10.258,9.726c2.098-0.002,3.864-1.742,3.876-3.817c0.012-2.101-1.745-3.846-3.87-3.85
									C8.169,2.057,6.399,3.796,6.39,5.872"/>
							</g>
							<g>
								<defs>
									
										<rect id="SVGID_00000173125007487415823800000014437540033877217426_" x="-0.021" y="0.235" width="20.12" height="11.369"/>
								</defs>
								<clipPath id="SVGID_00000163755997948121470480000007255886764691882381_">
									<use xlink:href="#SVGID_00000173125007487415823800000014437540033877217426_"  style="overflow:visible;"/>
								</clipPath>
								<path style="clip-path:url(#SVGID_00000163755997948121470480000007255886764691882381_);" d="M6.39,5.872
									c0.009-2.076,1.779-3.815,3.874-3.812c2.126,0.002,3.881,1.749,3.87,3.85c-0.012,2.076-1.778,3.815-3.876,3.818
									C8.146,9.73,6.379,7.968,6.39,5.872 M10.263,8.947c1.73-0.001,3.058-1.329,3.058-3.056c-0.002-1.72-1.399-3.126-3.084-3.103
									c-1.698,0.024-3.032,1.388-3.03,3.104C7.208,7.616,8.541,8.949,10.263,8.947"/>
							</g>
							<g>
								<defs>
									
										<rect id="SVGID_00000156576672801292399410000012539966152861788036_" x="-0.021" y="0.235" width="20.12" height="11.369"/>
								</defs>
								<clipPath id="SVGID_00000174565044999518087190000007662878962775562913_">
									<use xlink:href="#SVGID_00000156576672801292399410000012539966152861788036_"  style="overflow:visible;"/>
								</clipPath>
								<path style="clip-path:url(#SVGID_00000174565044999518087190000007662878962775562913_);fill:#FFFFFF;" d="M10.263,8.947
									c-1.722,0.002-3.056-1.33-3.056-3.055c-0.002-1.716,1.331-3.081,3.03-3.104c1.685-0.022,3.081,1.384,3.084,3.103
									C13.322,7.617,11.994,8.945,10.263,8.947"/>
							</g>
						</g>
					</g>
				</g>
			</g>
		</g>
	</g>
</g>
</svg>
