<svg width="17" height="17" viewBox="0 0 17 17" fill="none" xmlns="http://www.w3.org/2000/svg">
<path d="M16.7712 15.3256L12.9131 11.4671C13.9989 10.015 14.4946 8.20555 14.3002 6.40278C14.1058 4.60001 13.2359 2.9378 11.8654 1.75069C10.495 0.563573 8.72587 -0.0603108 6.91405 0.0046012C5.10223 0.0695132 3.38224 0.818402 2.10027 2.10054C0.818296 3.38268 0.0695042 5.10289 0.0046006 6.91495C-0.060303 8.727 0.5635 10.4964 1.75046 11.867C2.93742 13.2376 4.59942 14.1076 6.40195 14.302C8.20448 14.4964 10.0137 14.0008 11.4656 12.9148L15.3258 16.7711C15.5232 16.9309 15.7727 17.0119 16.0263 16.9986C16.2798 16.9853 16.5195 16.8785 16.699 16.699C16.8785 16.5194 16.9853 16.2797 16.9986 16.0261C17.0119 15.7726 16.9309 15.523 16.7712 15.3256ZM2.06336 7.17902C2.06264 6.1667 2.36212 5.17691 2.92394 4.33484C3.48575 3.49277 4.28465 2.83627 5.21959 2.44836C6.15452 2.06046 7.18348 1.95859 8.17631 2.15564C9.16914 2.35269 10.0812 2.83981 10.7972 3.55537C11.5132 4.27093 12.0009 5.18279 12.1986 6.17561C12.3964 7.16842 12.2953 8.19759 11.9081 9.13292C11.5209 10.0683 10.865 10.8677 10.0235 11.4302C9.18194 11.9927 8.19249 12.2929 7.1803 12.2929C5.8232 12.2929 4.52169 11.7538 3.56208 10.794C2.60247 9.8343 2.06336 8.53262 2.06336 7.17535V7.17902Z" fill="#677294"/>
</svg>
