<?xml version="1.0" encoding="utf-8"?>
<!-- Generator: Adobe Illustrator 26.1.0, SVG Export Plug-In . SVG Version: 6.00 Build 0)  -->
<svg version="1.1" id="Layer_1" xmlns="http://www.w3.org/2000/svg" xmlns:xlink="http://www.w3.org/1999/xlink" x="0px" y="0px"
	 viewBox="0 0 24 21" style="enable-background:new 0 0 24 21;" xml:space="preserve">
<style type="text/css">
	.st0{display:none;fill:none;stroke:#3D5D57;stroke-width:2;stroke-linecap:round;stroke-linejoin:round;}
	.st1{fill:none;stroke:#3D5D57;stroke-width:2;stroke-linecap:round;stroke-linejoin:round;}
</style>
<path class="st0" d="M20,21v-2c0-1.1-0.4-2.1-1.2-2.8C18.1,15.4,17.1,15,16,15H8c-1.1,0-2.1,0.4-2.8,1.2C4.4,16.9,4,17.9,4,19v2"/>
<path class="st0" d="M12,11c2.2,0,4-1.8,4-4s-1.8-4-4-4C9.8,3,8,4.8,8,7S9.8,11,12,11z"/>
<path class="st1" d="M11.7,9.3c2.2,0,3.9-1.7,3.9-3.9c0-2.1-1.8-3.9-3.9-3.9c-2.2,0-3.9,1.7-3.9,3.9C7.8,7.5,9.5,9.3,11.7,9.3z"/>
<path class="st1" d="M20.7,18.6c0-5.1-4-9.2-9-9.2c-5,0-9,4.1-9,9.2c0,0.3,0,0.6,0,0.9h17.9C20.6,19.2,20.7,18.9,20.7,18.6z"/>
</svg>
