<?xml version="1.0" encoding="utf-8"?>
<!-- Generator: Adobe Illustrator 26.1.0, SVG Export Plug-In . SVG Version: 6.00 Build 0)  -->
<svg version="1.1" id="Layer_1" xmlns="http://www.w3.org/2000/svg" xmlns:xlink="http://www.w3.org/1999/xlink" x="0px" y="0px"
	 width="17px" height="17px" viewBox="0 0 17 17" style="enable-background:new 0 0 17 17;" xml:space="preserve">
<g>
	<path style="fill:#FFFFFF;" d="M8.564,7.736c-2.163,0-3.922-1.735-3.922-3.867C4.641,1.736,6.401,0,8.564,0
		c2.163,0,3.922,1.735,3.922,3.868C12.486,6.001,10.726,7.736,8.564,7.736z M8.564,0.708c-1.773,0-3.215,1.418-3.215,3.16
		c0,1.742,1.442,3.16,3.215,3.16c1.772,0,3.214-1.417,3.214-3.16C11.778,2.126,10.336,0.708,8.564,0.708z"/>
</g>
<g>
	<path style="fill:#FFFFFF;" d="M16.911,17H0.09l-0.033-0.318c-0.03-0.295-0.046-0.596-0.046-0.894c0-4.763,3.808-8.639,8.488-8.639
		s8.488,3.875,8.488,8.639c0,0.295-0.015,0.596-0.045,0.893L16.911,17z M0.735,16.292h15.53c0.01-0.169,0.016-0.337,0.016-0.504
		c0-4.373-3.49-7.931-7.781-7.931c-4.29,0-7.781,3.558-7.781,7.931C0.719,15.956,0.725,16.125,0.735,16.292z"/>
</g>
</svg>
