<?xml version="1.0" encoding="utf-8"?>
<!-- Generator: Adobe Illustrator 26.1.0, SVG Export Plug-In . SVG Version: 6.00 Build 0)  -->
<svg version="1.1" id="Layer_1" xmlns="http://www.w3.org/2000/svg" xmlns:xlink="http://www.w3.org/1999/xlink" x="0px" y="0px"
	 viewBox="0 0 24 21" style="enable-background:new 0 0 24 21;" xml:space="preserve">
<style type="text/css">
	.st0{display:none;fill:none;stroke:#3D5D57;stroke-width:2;stroke-linecap:round;stroke-linejoin:round;}
	.st1{fill:none;stroke:#3D5D57;stroke-width:2;stroke-linecap:round;stroke-linejoin:round;}
</style>
<path class="st0" d="M20,21v-2c0-1.1-0.4-2.1-1.2-2.8C18.1,15.4,17.1,15,16,15H8c-1.1,0-2.1,0.4-2.8,1.2C4.4,16.9,4,17.9,4,19v2"/>
<path class="st0" d="M12,11c2.2,0,4-1.8,4-4s-1.8-4-4-4S8,4.8,8,7S9.8,11,12,11z"/>
<path class="st1" d="M12,10.8c2.2,0,3.9-1.7,3.9-3.9C15.9,4.8,14.1,3,12,3C9.8,3,8.1,4.7,8.1,6.9C8.1,9,9.8,10.8,12,10.8z"/>
<path class="st1" d="M21,20.1c0-5.1-4-9.2-9-9.2S3,15,3,20.1c0,0.3,0,0.6,0,0.9h17.9C20.9,20.7,21,20.4,21,20.1z"/>
</svg>
