<?xml version="1.0" encoding="utf-8"?>
<!-- Generator: Adobe Illustrator 26.1.0, SVG Export Plug-In . SVG Version: 6.00 Build 0)  -->
<svg version="1.1" id="Layer_1" xmlns="http://www.w3.org/2000/svg" xmlns:xlink="http://www.w3.org/1999/xlink" x="0px" y="0px"
	 width="17.984px" height="11.558px" viewBox="0 0 17.984 11.558" style="enable-background:new 0 0 17.984 11.558;"
	 xml:space="preserve">
<g>
	<g>
		<path d="M5.876,5.314c-1.486,0-2.695-1.192-2.695-2.657C3.181,1.192,4.39,0,5.876,0S8.57,1.192,8.57,2.657
			C8.57,4.122,7.362,5.314,5.876,5.314z M5.876,0.486c-1.218,0-2.209,0.974-2.209,2.171c0,1.197,0.991,2.171,2.209,2.171
			s2.209-0.974,2.209-2.171C8.084,1.46,7.093,0.486,5.876,0.486z"/>
	</g>
	<g>
		<path d="M11.611,11.558H0.053L0.031,11.34C0.01,11.136,0,10.93,0,10.726c0-3.273,2.616-5.935,5.832-5.935
			c3.216,0,5.832,2.663,5.832,5.935c0,0.203-0.01,0.409-0.031,0.613L11.611,11.558z M0.497,11.072h10.67
			c0.007-0.116,0.011-0.231,0.011-0.346c0-3.005-2.398-5.449-5.346-5.449s-5.346,2.444-5.346,5.449
			C0.486,10.841,0.49,10.956,0.497,11.072z"/>
	</g>
	<g>
		<path d="M12.196,5.314c-1.486,0-2.695-1.192-2.695-2.657C9.501,1.192,10.71,0,12.196,0s2.695,1.192,2.695,2.657
			C14.891,4.122,13.682,5.314,12.196,5.314z M12.196,0.486c-1.218,0-2.209,0.974-2.209,2.171c0,1.197,0.991,2.171,2.209,2.171
			s2.209-0.974,2.209-2.171C14.404,1.46,13.414,0.486,12.196,0.486z"/>
	</g>
	<g>
		<path d="M17.931,11.558H6.373L6.351,11.34C6.33,11.136,6.32,10.93,6.32,10.726c0-3.273,2.616-5.935,5.832-5.935
			c3.216,0,5.832,2.663,5.832,5.935c0,0.203-0.01,0.409-0.031,0.613L17.931,11.558z M6.817,11.072h10.67
			c0.007-0.116,0.011-0.231,0.011-0.346c0-3.005-2.398-5.449-5.346-5.449c-2.948,0-5.346,2.444-5.346,5.449
			C6.806,10.841,6.81,10.956,6.817,11.072z"/>
	</g>
</g>
</svg>
